<?xml version="1.0" encoding="utf-8"?>
<!-- Svg Vector Icons : http://www.onlinewebfonts.com/icon -->
<!DOCTYPE svg PUBLIC "-//W3C//DTD SVG 1.1//EN" "http://www.w3.org/Graphics/SVG/1.1/DTD/svg11.dtd">
<svg version="1.1" xmlns="http://www.w3.org/2000/svg" xmlns:xlink="http://www.w3.org/1999/xlink" x="0px" y="0px" viewBox="0 0 1000 1000" enable-background="new 0 0 1000 1000" xml:space="preserve">
<metadata> Svg Vector Icons : http://www.onlinewebfonts.com/icon </metadata>
<g><polygon points="814.9,783 814.9,622.5 765.9,622.5 765.9,783 607.2,783 607.2,831.7 765.9,831.7 765.9,990 814.9,990 814.9,831.7 974.7,831.7 974.7,783 "/><path d="M503.7,542.3c-42.2,22.6-90.4,35.5-141.6,35.5c-51.1,0-99.3-12.9-141.5-35.5C129.5,566.2,58,622.9,25.3,745h673.8C666.3,622.9,594.9,566.2,503.7,542.3z"/><path d="M362.2,500c135.3,0,245-109.7,245-245S497.5,10,362.2,10c-135.3,0-245,109.7-245,245S226.9,500,362.2,500z M526,336.7c-30.1,60.3-91.8,102.1-163.8,102.1c-72,0-133.6-41.8-163.8-102.1H526z"/></g>
</svg>