<?xml version="1.0" encoding="utf-8"?>
<!-- Svg Vector Icons : http://www.onlinewebfonts.com/icon -->
<!DOCTYPE svg PUBLIC "-//W3C//DTD SVG 1.1//EN" "http://www.w3.org/Graphics/SVG/1.1/DTD/svg11.dtd">
<svg version="1.1" xmlns="http://www.w3.org/2000/svg" xmlns:xlink="http://www.w3.org/1999/xlink" x="0px" y="0px" viewBox="0 0 1000 1000" enable-background="new 0 0 1000 1000" xml:space="preserve">
<metadata> Svg Vector Icons : http://www.onlinewebfonts.com/icon </metadata>
<g><rect x="610.6" y="873.1" width="379.4" height="50.5"/><path d="M503.8,625.8c-43.5,23.4-93.3,36.7-146.1,36.7c-52.8,0-102.5-13.3-146.1-36.7C117.5,650.6,43.8,709.1,10,835.1h695.5C671.7,709.1,598,650.5,503.8,625.8z"/><path d="M357.7,582.2c139.7,0,252.9-113.2,252.9-252.9S497.4,76.4,357.7,76.4c-139.7,0-252.9,113.2-252.9,252.9S218.1,582.2,357.7,582.2z M526.8,413.6C495.7,475.9,432.1,519,357.7,519c-74.3,0-138-43.1-169.1-105.4H526.8z"/></g>
</svg>